<?xml version="1.0" encoding="utf-8"?>
<!-- Generator: Adobe Illustrator 21.0.2, SVG Export Plug-In . SVG Version: 6.00 Build 0)  -->
<svg version="1.1" id="Calque_1" xmlns="http://www.w3.org/2000/svg" xmlns:xlink="http://www.w3.org/1999/xlink" x="0px" y="0px"
	 viewBox="0 0 215 71" style="enable-background:new 0 0 215 71;" xml:space="preserve">
<style type="text/css">
	.st0{fill:#F74C4F;}

	#left{
		animation: left 2s infinite;
	}
	#right{
		animation: right 2s infinite;
	}

	@keyframes left {
		0% {
			transform: translateX(0);
		}
		30% {
			transform: translateX(-10px);
		}
		50% {
			transform: translateX(1px);
		}
		80% {
			transform: translateX(1px);
		}
		100% {
			transform: translateX(0);
		}
	}
	@keyframes right {
		0% {
			transform: translateX(0);
		}
		30% {
			transform: translateX(10px);
		}
		50% {
			transform: translateX(-1px);
		}
		80% {
			transform: translateX(-1px);
		}
		100% {
			transform: translateX(0);
		}
	}
</style>
<path id="right" class="st0" d="M138.6,0.7L138.6,0.7h-1h-8.4l-27.8,69.8h9.3l24.8-62.3l4.4-0.1c5.3,0,7.8,2.1,7.8,7.2v13.2
	c0,5.1-8.9,7.3-14.4,7.3h-2.3l-5.1,7.6l6.4-0.1c11.8,0,24.7-4.8,24.7-15.7V16.2C157,5.2,150.4,0.7,138.6,0.7z"/>
<path id="left" class="st0" d="M77.3,55.5V15.9c0-4-1.6-7.5,3.7-7.5l38.8-0.4l4.2-7.6l-42,0.4C69.8,0.9,68,6.5,68,17.8v35.8
	c0,11.3,1.8,16.9,14.1,16.9h14.3l4.2-7.6h-20C75.7,62.9,77.3,59.5,77.3,55.5z"/>
</svg>
