<?xml version="1.0" encoding="utf-8"?>
<!-- Generator: Adobe Illustrator 21.0.2, SVG Export Plug-In . SVG Version: 6.00 Build 0)  -->
<svg version="1.1" id="Calque_1" xmlns="http://www.w3.org/2000/svg" xmlns:xlink="http://www.w3.org/1999/xlink" x="0px" y="0px"
	 viewBox="0 0 408 71" enable-background="new 0 0 408 71" xml:space="preserve">
<g>
	<path fill="#FFFFFF" d="M125.552,70.502c-10.565,0-16.537-5.601-16.537-17.001V17.499c0-11.4,5.972-17.001,16.537-17.001h13.046
		v7.601h-13.964c-4.594,0-7.625,3.5-7.625,7.5v39.802c0,4,3.032,7.5,7.625,7.5h13.964v7.601H125.552z"/>
	<path fill="#FFFFFF" d="M162.256,70.502h-3.032c-10.565,0-15.619-4.6-15.619-16.001V36.5c0-11.401,5.053-16.001,15.619-16.001
		h3.032c10.565,0,15.618,4.6,15.618,16.001v18.001C177.875,65.902,172.822,70.502,162.256,70.502z M170.065,34.5
		c0-4-2.297-6.5-6.891-6.5h-4.869c-4.594,0-6.891,2.5-6.891,6.5v22.001c0,4,2.297,6.5,6.891,6.5h4.869c4.594,0,6.891-2.5,6.891-6.5
		V34.5z"/>
	<path fill="#FFFFFF" d="M210.691,70.502v-2.3c-2.113,1.6-4.594,2.3-7.35,2.3h-3.768c-10.565,0-15.618-4.5-15.618-16.001V36.5
		c0-11.401,5.053-16.001,15.618-16.001h10.657V0.498h7.81v70.004H210.691z M210.231,57.501V28h-11.575c-4.594,0-6.891,2.5-6.891,6.5
		v22.001c0,4,2.297,6.5,6.891,6.5h5.604C208.854,63.002,210.231,59.502,210.231,57.501z"/>
	<path fill="#FFFFFF" d="M240.458,70.502c-10.565,0-15.619-4.5-15.619-16.001V36.5c0-11.401,4.135-16.001,14.7-16.001h4.318
		c8.819,0,13.229,5.5,13.229,15.501v13h-24.438v7.5c0,4,2.297,6.5,6.891,6.5h14.607v7.5H240.458z M232.648,41.5h16.812V34
		c0-3.5-2.297-6-5.512-6h-5.329c-4.594,0-5.972,2.5-5.972,6.5V41.5z"/>
	<path fill="#FFFFFF" d="M279.862,43.301h-9.555v27.202h-7.993V0.498h17.364c10.105,0,15.802,4.601,15.802,15.601V27.5
		C295.48,38.5,289.969,43.301,279.862,43.301z M287.487,15.199c0-5.101-2.112-7.201-6.706-7.201h-10.474V35.8h10.474
		c4.686,0,6.706-2.2,6.706-7.3V15.199z"/>
	<path fill="#FFFFFF" d="M319.615,70.502h-3.031c-10.565,0-15.619-4.6-15.619-16.001V36.5c0-11.401,5.054-16.001,15.619-16.001
		h3.031c10.565,0,15.619,4.6,15.619,16.001v18.001C335.234,65.902,330.181,70.502,319.615,70.502z M327.425,34.5
		c0-4-2.297-6.5-6.891-6.5h-4.869c-4.594,0-6.891,2.5-6.891,6.5v22.001c0,4,2.297,6.5,6.891,6.5h4.869c4.594,0,6.891-2.5,6.891-6.5
		V34.5z"/>
	<path fill="#FFFFFF" d="M356.869,70.502h-13.688v-7.5h14.607c3.216,0,5.053-1.5,5.053-4.5v-5.3c0-3-1.378-4.5-3.95-4.5h-3.399
		c-8.452,0-12.771-3.7-12.771-12.701v-2.9c0-9.3,5.054-12.601,13.781-12.601h12.311V28h-13.229c-2.939,0-5.053,1.5-5.053,4.5v3.6
		c0,3.2,2.113,4.5,4.41,4.5h3.123c8.177,0,12.587,4.4,12.587,12.901v4.5C370.65,66.602,365.598,70.502,356.869,70.502z"/>
	<path fill="#FFFFFF" d="M396.401,70.502c-6.431,0-9.646-5-9.646-12.001V28h-8.729v-7.5h8.729V8.498h7.809v12.001h13.414V28h-13.414
		v31.002c0,3,1.379,4,4.135,4h9.279v7.5H396.401z"/>
</g>
<g>
	<path fill="#F74C4F" d="M9.279,55.487V15.912c0-3.978-1.611-7.458,3.738-7.458l38.821-0.399l4.206-7.557L14.086,0.897
		c-12.301,0-14.113,5.569-14.113,16.904v35.797c0,11.335,1.812,16.904,14.113,16.904h14.254l4.206-7.557H12.55
		C7.669,62.945,9.279,59.465,9.279,55.487z"/>
	<path fill="#F74C4F" d="M70.602,0.662h-0.072h-0.935h-8.412L33.389,70.502h9.346L67.52,8.226l4.366-0.107
		c5.348,0,7.808,2.088,7.808,7.16v13.225c0,5.071-8.895,7.259-14.35,7.259h-2.29l-5.14,7.602l6.36-0.144
		C76.04,43.22,89,38.447,89,27.509V16.174C89,5.236,82.368,0.662,70.602,0.662z"/>
</g>
</svg>
